<?xml version="1.0" encoding="utf-8"?>
<!-- Generator: Adobe Illustrator 24.2.0, SVG Export Plug-In . SVG Version: 6.00 Build 0)  -->
<svg version="1.1" id="레이어_1" xmlns="http://www.w3.org/2000/svg" xmlns:xlink="http://www.w3.org/1999/xlink" x="0px"
	 y="0px" viewBox="0 0 612 792" style="enable-background:new 0 0 612 792;" xml:space="preserve">
<path d="M149.4,210.2c-8-25-15.3-48.5-23.1-71.9c-5.5-16.7-7.6-36.8-18.5-48.7c-11.1-12.1-31-16.1-47.3-23.2
	c-11.3-5-22.9-9.2-34.4-13.8c-2.7-1.1-5.3-2.3-7.8-3.8c-8-4.6-10.5-11.3-6.5-19.9c3.9-8.5,10.5-9.7,18.5-6.2
	c22.3,9.9,43.8,22,66.9,29c27.6,8.4,42,24.9,48.7,52.6c7.2,29.5,18,58.2,27.3,87.2c1.2,3.8,2.6,7.7,3.7,11
	c33.9-3.9,66.9-7.6,99.2-11.3c3.1-19.2,5-38.8,9.6-57.9c3.3-13.4,9.4-26.3,15.4-38.9c5.4-11.4,10.8-11.8,21.3-3.1
	c20.9,17.4,42.4,34.3,54.6,61.3c20.1-29,45.9-45.7,78.4-52.5c65.8-13.8,133.1,31.5,145.1,97.9c12.2,67.2-29.4,130.6-96.4,145.1
	c-9.9,2.2-11.5,5.8-11.5,14.5c0.1,97.3,0,194.5-0.1,291.8c0,21.1,0.5,42.1-9.8,61.7c-15.7,30-41.9,46.5-73,54.7
	c-48.9,12.8-99,13.2-149,8.4c-21.2-2-42.5-5.7-63.2-10.8c-23-5.6-41.9-19.5-57.6-37c-14.3-16-20.5-35.6-20.5-57
	c-0.1-141.1,0.1-282.3-0.1-423.4C119.3,225.7,130.5,215.2,149.4,210.2z M277.4,687.8c-2.4-6.8-3.9-11.5-5.6-16
	c-5.8-15-11.9-29.9-17.5-44.9c-2.8-7.6-0.2-13.6,7.4-17.3c7.6-3.6,12.8-0.3,17,5.6c1.9,2.7,3.2,5.8,4.4,8.8
	c7.5,18.3,15.4,36.5,22.2,55c3.2,8.7,8.3,11.3,16.8,10.1c24.5-3.3,49.1-6.2,73.5-9.7c38.5-5.5,68.6-40.3,68.6-79.1
	c0-80.7,0-161.4,0-242.1c0-4.5,0-9,0-15.2c-19.4,4.6-37.5,8.9-55.4,13.2c8.2,15.7,16.4,29.9,23.1,44.9c5.2,11.5,0.7,22.6-10.1,27.3
	c-18.8,8.1-38.5,14.3-58.2,20c-8.6,2.5-17-0.8-18.9-11.1c-1.8-10,4-14.7,13.4-17.3c14.9-4.1,29.4-9.5,45-14.6
	c-7.6-12.2-15.3-22.6-20.9-34c-4.6-9.4-11.1-10-20-9.5c-22.7,1.2-45.5,1.7-68.2,1.9c-9.7,0.1-18.7-2.6-18.5-15
	c0.1-12.1,8.3-14.5,18.5-14.7c24-0.5,48-0.7,71.9-2.6c20.2-1.6,40.3-5.6,60.5-8.5c0.1-1.5,0.2-3.1,0.3-4.6
	c-22.2-5.7-44.3-15.7-66.6-16.2c-50.2-1.3-100.6,2.2-152.4-7.6c2.3,6.6,4.2,11.4,5.7,16.3c2.9,9.8,5.2,19.1,18.3,21
	c3.8,0.6,8.9,8,9.3,12.6c0.4,4.5-4.3,9.5-7.3,14c-1.2,1.8-3.7,2.7-5.6,4c4.7,13.9,9.2,27,13.8,40.3c8.5-1.5,16.1-3.4,23.9-4.2
	c22.4-2.3,33.8,7.6,34.2,30c0.4,20.3,0.4,40.6,0.1,60.8c-0.2,17.1-8,28.7-23.1,32.8c-22.3,6.1-44.7,11.6-67.2,16.5
	c-17.7,3.8-33-9-33.3-27.3c-0.3-23.6-0.3-47.2,0-70.8c0.2-14.4,6-21.8,19.8-26.5c5.7-1.9,11.5-3.4,18-5.3
	c-6.1-16.9-11.6-32.8-17.5-48.5c-0.9-2.4-3-5.3-5.2-6c-13.7-4.2-27.6-7.9-42.6-12.1c0,5.4,0,9.8,0,14.3c0,81.5,0.2,163-0.1,244.5
	c-0.1,29.2,12.8,50.9,37,65.7C213.1,683.6,244.3,684.9,277.4,687.8z M493.5,314.3c33.1,0.2,83-39.8,81.6-95.1
	c-1.3-51.7-48.5-95.5-99.6-93.5c-38.8,1.5-91.1,38.3-84.3,88.4c0.8,0.2,1.6,0.6,2.3,0.5c1.6-0.3,3.2-0.9,4.7-1.6
	c30.4-14.1,62.7-16.8,95.6-15.5c12.4,0.5,15.8,4.7,10.5,16.3C489.4,245.9,491.9,279.7,493.5,314.3z M463.7,675.4
	c-3.5,2.5-5.5,3.7-7.3,5.2c-17,14.3-36.1,24-58,29c-48.5,11-97.3,12.2-146.5,6.7c-35.6-4-70.2-11.4-97.4-37.5
	c-0.7-0.6-2-0.6-4.3-1.1c4.7,27.5,20.9,44.1,45,53.7c28.3,11.4,58.1,15.3,88.4,15.7c46.2,0.7,92.8,1.9,136.7-15.8
	C443.9,721.6,459.9,704,463.7,675.4z M186.4,229.4c3.8,11.4,5.7,19.8,9.3,27.5c1.5,3.3,6.2,6.9,9.7,7.2c35.3,3,70.6,5.5,105.9,7.9
	c2.9,0.2,5.9-0.6,5.7-0.6c-10.2-15.1-20.3-30.7-31.1-45.7c-2.1-2.9-7.3-5.4-10.8-5.1C246.5,223,217.9,226.2,186.4,229.4z
	 M270.4,426.7c-21.8,5-42.8,9.9-63.7,14.8c0,23.5,0,45.7,0,69.1c21.9-6.1,43-11.9,63.7-17.6C270.4,470.1,270.4,449.2,270.4,426.7z
	 M320.6,223.3c-0.7-5.2-1.9-10.5-2.2-15.7c-0.5-8.9-2.6-20.1,9.1-22.6c10.8-2.3,13.1,8.4,15.1,16c3.9,15.1,6.7,30.4,9.8,45.2
	c23.8-38,5.6-90.1-34.6-120.8C306.5,158.4,301.9,190.8,320.6,223.3z M471.2,224.7c-38.8,2.7-72.9,11.7-98.6,44.1
	C415.1,269.1,460.2,255,471.2,224.7z M150.1,279.3c-4.8,30.6-3.5,32.7,24.9,39.6c3.1,0.7,6.3,0.9,9.6,1.4
	C178.8,288.9,173.7,282.8,150.1,279.3z M463.7,279.2c-12.7,4.4-24.3,8.4-38.5,13.4c14.3,7.3,25.9,13.2,38.5,19.6
	C463.7,300.3,463.7,290.5,463.7,279.2z"/>
<path d="M330,561.5c-5.4,9.7-10.1,18.3-15.6,28.3c18.2,10.8,35.8,21.2,54.2,32.1c15-26.4,29.4-51.8,44.6-78.5
	c-12.4-6.9-24.8-13.1-36.4-20.6c-4.9-3.2-7.8-9.4-12.1-13.8c-6.2-6.3-12.8-12.2-19.3-18.4c5.7-6.4,19.1-8.2,30.2-1.9
	c16.1,9.1,32.2,18.5,48,28.3c16.8,10.5,22,26.3,12.7,43.7c-13.6,25.5-28.2,50.4-43.3,75c-8.7,14.3-22.8,18.5-37.5,11
	c-18.7-9.5-37.2-19.5-54.9-30.8c-16.9-10.8-19.7-26.7-9.8-43.9c9.5-16.4,18.4-33.2,28.8-49.1c3-4.6,10.1-6.5,15.3-9.6
	c3.3,5.5,6.7,11,9.7,16.7c2.3,4.2,3,10.3,6.4,12.9c11.2,8.2,14.8,15.6,9,22.9c-6,7.6-16.7,7.2-26-0.9
	C333.1,564.1,332.1,563.3,330,561.5z"/>
<path d="M201.3,597.7c-8.1-0.4-13-5.6-13-15c0-9.1,6.8-12.1,14.1-12.2c8.3-0.1,14.8,4.1,14.5,13.3
	C216.6,592.3,211.9,597.7,201.3,597.7z"/>
<path d="M443.3,470.2c-8,5.8-13.4,12.7-17.4,11.9c-5.2-1-12.7-7.9-12.7-12.3c0-4.5,7.5-12.2,12.3-12.7
	C430,456.7,435.3,463.9,443.3,470.2z"/>
</svg>
